<svg width="35" height="35" viewBox="0 0 35 35" fill="none" xmlns="http://www.w3.org/2000/svg">
<g id="akar-icons:youtube-fill" clip-path="url(#clip0_68_490)">
<g id="Group">
<g id="Group_2">
<path id="Vector" d="M34.2708 9.48938C34.0727 8.78243 33.6866 8.14239 33.1538 7.6373C32.6058 7.11668 31.9343 6.74427 31.2025 6.55522C28.4638 5.83334 17.4913 5.83334 17.4913 5.83334C12.9169 5.7813 8.34375 6.0102 3.7975 6.51876C3.06569 6.72178 2.3954 7.10251 1.84625 7.62709C1.30667 8.14626 0.915833 8.78647 0.711666 9.48793C0.221219 12.1301 -0.0170743 14.8128 -2.09664e-07 17.5C-0.0175002 20.1848 0.220208 22.8667 0.711666 25.5121C0.911458 26.2106 1.30083 26.8479 1.84187 27.3627C2.38292 27.8775 3.05667 28.2494 3.7975 28.4463C6.57271 29.1667 17.4913 29.1667 17.4913 29.1667C22.0714 29.2188 26.6504 28.9899 31.2025 28.4813C31.9343 28.2922 32.6058 27.9198 33.1538 27.3992C33.6864 26.8942 34.072 26.2541 34.2694 25.5471C34.7726 22.906 35.0173 20.2221 35 17.5336C35.0379 14.8336 34.7935 12.1371 34.2708 9.48793V9.48938ZM14.0029 22.4933V12.5081L23.1321 17.5015L14.0029 22.4933Z" fill="#B3B3B3"/>
</g>
</g>
</g>
<defs>
<clipPath id="clip0_68_490">
<rect width="35" height="35" fill="white"/>
</clipPath>
</defs>
</svg>
