<svg width="60" height="60" viewBox="0 0 60 60" fill="none" xmlns="http://www.w3.org/2000/svg">
<g id="carbon:search">
<g id="Group">
<path id="Vector" d="M54.375 51.7238L40.215 37.5638C43.6177 33.4787 45.3146 28.2391 44.9525 22.9348C44.5904 17.6306 42.1973 12.6701 38.2711 9.08535C34.3448 5.50058 29.1876 3.56752 23.8724 3.68829C18.5572 3.80906 13.4932 5.97437 9.73376 9.73377C5.97436 13.4932 3.80906 18.5572 3.68829 23.8724C3.56751 29.1876 5.50058 34.3448 9.08534 38.2711C12.6701 42.1973 17.6306 44.5904 22.9348 44.9525C28.2391 45.3146 33.4787 43.6177 37.5638 40.215L51.7238 54.375L54.375 51.7238ZM7.5 24.375C7.5 21.0374 8.4897 17.7748 10.344 14.9998C12.1982 12.2247 14.8337 10.0618 17.9172 8.78454C21.0007 7.50731 24.3937 7.17313 27.6671 7.82425C30.9406 8.47538 33.9474 10.0826 36.3074 12.4426C38.6674 14.8026 40.2746 17.8094 40.9258 21.0829C41.5769 24.3563 41.2427 27.7493 39.9655 30.8328C38.6882 33.9163 36.5253 36.5518 33.7502 38.4061C30.9752 40.2603 27.7126 41.25 24.375 41.25C19.901 41.245 15.6117 39.4656 12.4481 36.302C9.28445 33.1383 7.50496 28.849 7.5 24.375Z" fill="white"/>
</g>
</g>
</svg>
