<svg width="202" height="47" viewBox="0 0 202 47" fill="none" xmlns="http://www.w3.org/2000/svg">
<g id="N&#195;&#186;t &#196;&#145;i&#225;&#187;&#129;u h&#198;&#176;&#225;&#187;&#155;ng">
<rect id="Rectangle 4" x="1" y="1.66669" width="87.6893" height="43.3704" rx="21.6852" stroke="white" stroke-width="2"/>
<rect id="Rectangle 5" x="113.112" y="1.66669" width="87.6893" height="43.3704" rx="21.6852" stroke="white" stroke-width="2"/>
<path id="Vector" fill-rule="evenodd" clip-rule="evenodd" d="M139.915 23.6833C139.915 23.3259 140.047 22.9832 140.28 22.7305C140.514 22.4779 140.831 22.3359 141.161 22.3359H170.537L162.698 13.8585C162.582 13.7333 162.491 13.5846 162.428 13.4209C162.365 13.2572 162.333 13.0818 162.333 12.9046C162.333 12.7275 162.365 12.5521 162.428 12.3884C162.491 12.2247 162.582 12.076 162.698 11.9507C162.814 11.8255 162.951 11.7261 163.103 11.6583C163.254 11.5905 163.416 11.5556 163.58 11.5556C163.744 11.5556 163.906 11.5905 164.057 11.6583C164.209 11.7261 164.346 11.8255 164.462 11.9507L174.426 22.7293C174.542 22.8545 174.634 23.0032 174.697 23.1669C174.76 23.3306 174.792 23.506 174.792 23.6833C174.792 23.8605 174.76 24.0359 174.697 24.1996C174.634 24.3633 174.542 24.512 174.426 24.6372L164.462 35.4158C164.346 35.541 164.209 35.6404 164.057 35.7082C163.906 35.776 163.744 35.8109 163.58 35.8109C163.416 35.8109 163.254 35.776 163.103 35.7082C162.951 35.6404 162.814 35.541 162.698 35.4158C162.582 35.2905 162.491 35.1418 162.428 34.9781C162.365 34.8144 162.333 34.639 162.333 34.4619C162.333 34.2847 162.365 34.1093 162.428 33.9456C162.491 33.7819 162.582 33.6332 162.698 33.508L170.537 25.0306H141.161C140.831 25.0306 140.514 24.8886 140.28 24.636C140.047 24.3833 139.915 24.0406 139.915 23.6833Z" fill="white"/>
<path id="Vector_2" fill-rule="evenodd" clip-rule="evenodd" d="M62.6802 23.6833C62.6802 23.3259 62.549 22.9832 62.3154 22.7305C62.0818 22.4779 61.765 22.3359 61.4347 22.3359H32.0581L39.8973 13.8585C40.0131 13.7333 40.105 13.5846 40.1677 13.4209C40.2303 13.2572 40.2626 13.0818 40.2626 12.9046C40.2626 12.7275 40.2303 12.5521 40.1677 12.3884C40.105 12.2247 40.0131 12.076 39.8973 11.9507C39.7815 11.8255 39.644 11.7261 39.4927 11.6583C39.3414 11.5905 39.1793 11.5556 39.0155 11.5556C38.8517 11.5556 38.6896 11.5905 38.5383 11.6583C38.387 11.7261 38.2495 11.8255 38.1337 11.9507L28.1696 22.7293C28.0536 22.8545 27.9616 23.0032 27.8988 23.1669C27.836 23.3306 27.8037 23.506 27.8037 23.6833C27.8037 23.8605 27.836 24.0359 27.8988 24.1996C27.9616 24.3633 28.0536 24.512 28.1696 24.6372L38.1337 35.4158C38.2495 35.541 38.387 35.6404 38.5383 35.7082C38.6896 35.776 38.8517 35.8109 39.0155 35.8109C39.1793 35.8109 39.3414 35.776 39.4927 35.7082C39.644 35.6404 39.7815 35.541 39.8973 35.4158C40.0131 35.2905 40.105 35.1418 40.1677 34.9781C40.2303 34.8144 40.2626 34.639 40.2626 34.4619C40.2626 34.2847 40.2303 34.1093 40.1677 33.9456C40.105 33.7819 40.0131 33.6332 39.8973 33.508L32.0581 25.0306H61.4347C61.765 25.0306 62.0818 24.8886 62.3154 24.636C62.549 24.3833 62.6802 24.0406 62.6802 23.6833Z" fill="white"/>
</g>
</svg>
