<svg width="15" height="15" viewBox="0 0 15 15" fill="none" xmlns="http://www.w3.org/2000/svg">
<g id="fluent:arrow-down-48-regular">
<path id="Vector" d="M1.64062 7.10934C1.53702 7.10934 1.43767 7.1505 1.36441 7.22375C1.29115 7.29701 1.25 7.39637 1.25 7.49997C1.25 7.60357 1.29115 7.70292 1.36441 7.77618C1.43767 7.84944 1.53702 7.89059 1.64062 7.89059L11.78 7.89059L7.77313 11.8309C7.73487 11.8665 7.70412 11.9093 7.68272 11.9569C7.66131 12.0046 7.64967 12.056 7.64849 12.1082C7.64731 12.1605 7.65662 12.2124 7.67585 12.2609C7.69508 12.3095 7.72386 12.3537 7.76047 12.3909C7.79708 12.4282 7.84079 12.4577 7.88901 12.4777C7.93724 12.4978 7.98899 12.508 8.04121 12.5077C8.09344 12.5074 8.14507 12.4966 8.19306 12.476C8.24106 12.4554 8.28443 12.4254 8.32062 12.3878L13.0081 7.7784C13.0451 7.74205 13.0744 7.69871 13.0944 7.65091C13.1145 7.60311 13.1248 7.5518 13.1248 7.49997C13.1248 7.44814 13.1145 7.39683 13.0944 7.34902C13.0744 7.30122 13.0451 7.25788 13.0081 7.22153L8.32062 2.61215C8.28443 2.57451 8.24106 2.54449 8.19306 2.5239C8.14507 2.5033 8.09344 2.49254 8.04121 2.49225C7.98899 2.49196 7.93723 2.50214 7.88901 2.52219C7.84079 2.54225 7.79708 2.57177 7.76047 2.60901C7.72386 2.64625 7.69508 2.69045 7.67585 2.73901C7.65661 2.78756 7.64731 2.83948 7.64849 2.89169C7.64967 2.9439 7.66131 2.99535 7.68272 3.04299C7.70412 3.09062 7.73487 3.13348 7.77312 3.16903L11.78 7.10934L1.64062 7.10934Z" fill="#0D4C79"/>
</g>
</svg>
