<svg width="25" height="25" viewBox="0 0 25 25" fill="none" xmlns="http://www.w3.org/2000/svg">
<g id="fluent:arrow-down-48-regular">
<path id="Vector" d="M2.73442 11.8489C2.56175 11.8489 2.39615 11.9175 2.27406 12.0396C2.15197 12.1617 2.08337 12.3273 2.08337 12.5C2.08337 12.6727 2.15197 12.8382 2.27406 12.9603C2.39615 13.0824 2.56175 13.151 2.73442 13.151L19.6334 13.151L12.9552 19.7182C12.8915 19.7775 12.8402 19.8489 12.8046 19.9283C12.7689 20.0077 12.7495 20.0934 12.7475 20.1804C12.7456 20.2675 12.7611 20.354 12.7931 20.4349C12.8252 20.5158 12.8731 20.5895 12.9342 20.6516C12.9952 20.7136 13.068 20.7629 13.1484 20.7963C13.2288 20.8297 13.315 20.8467 13.4021 20.8462C13.4891 20.8457 13.5752 20.8278 13.6551 20.7934C13.7351 20.7591 13.8074 20.7091 13.8677 20.6463L21.6802 12.964C21.7418 12.9035 21.7907 12.8312 21.8241 12.7516C21.8575 12.6719 21.8747 12.5864 21.8747 12.5C21.8747 12.4136 21.8575 12.3281 21.8241 12.2484C21.7907 12.1687 21.7418 12.0965 21.6802 12.0359L13.8677 4.35363C13.8074 4.29088 13.7351 4.24086 13.6551 4.20654C13.5752 4.17221 13.4891 4.15428 13.4021 4.15379C13.315 4.1533 13.2288 4.17027 13.1484 4.20369C13.068 4.23712 12.9952 4.28632 12.9342 4.34839C12.8731 4.41046 12.8252 4.48413 12.7931 4.56506C12.7611 4.64598 12.7456 4.73251 12.7475 4.81953C12.7495 4.90655 12.7689 4.99229 12.8046 5.07168C12.8402 5.15108 12.8915 5.22251 12.9552 5.28175L19.6334 11.8489L2.73442 11.8489Z" fill="#0D4C79"/>
</g>
</svg>
