<svg width="30" height="30" viewBox="0 0 30 30" fill="none" xmlns="http://www.w3.org/2000/svg">
<g id="fluent:mail-24-filled">
<g id="Group">
<path id="Vector" d="M2.5 10.76V20.9375C2.49993 21.9752 2.89694 22.9735 3.60959 23.7278C4.32224 24.482 5.29649 24.935 6.3325 24.9938L6.5625 25H23.4375C24.4752 25.0001 25.4735 24.6031 26.2278 23.8904C26.982 23.1778 27.435 22.2035 27.4937 21.1675L27.5 20.9375V10.76L15.435 17.08C15.3008 17.1503 15.1515 17.187 15 17.187C14.8485 17.187 14.6992 17.1503 14.565 17.08L2.5 10.76ZM23.4375 5H6.5625C5.55552 4.99988 4.58439 5.37374 3.83745 6.04908C3.09051 6.72442 2.62101 7.6531 2.52 8.655L15 15.1925L27.48 8.655C27.3831 7.69289 26.9462 6.7969 26.2478 6.12808C25.5494 5.45926 24.6354 5.06148 23.67 5.00625L23.4375 5H6.5625H23.4375Z" fill="#0D4C79"/>
</g>
</g>
</svg>
