<svg width="30" height="30" viewBox="0 0 30 30" fill="none" xmlns="http://www.w3.org/2000/svg">
<g id="ant-design:home-filled">
<g id="Group">
<path id="Vector" d="M2.27051 14.7951L14.3379 2.73655C14.4248 2.64949 14.528 2.58042 14.6416 2.5333C14.7552 2.48617 14.877 2.46191 15 2.46191C15.123 2.46191 15.2448 2.48617 15.3584 2.5333C15.472 2.58042 15.5752 2.64949 15.6621 2.73655L27.7295 14.7951C28.0811 15.1467 28.2803 15.6242 28.2803 16.1223C28.2803 17.1565 27.4395 17.9973 26.4053 17.9973H25.1338V26.6018C25.1338 27.1203 24.7148 27.5393 24.1963 27.5393H16.875V20.9768H13.5938V27.5393H5.80371C5.28516 27.5393 4.86621 27.1203 4.86621 26.6018V17.9973H3.59473C3.09668 17.9973 2.61914 17.801 2.26758 17.4465C1.53809 16.7141 1.53809 15.5276 2.27051 14.7951Z" fill="#0D4C79"/>
</g>
</g>
</svg>
