<svg width="35" height="35" viewBox="0 0 35 35" fill="none" xmlns="http://www.w3.org/2000/svg">
<g id="foundation:social-twitter">
<path id="Vector" d="M30.975 9.142C29.9659 9.58904 28.8955 9.88233 27.7994 10.0121C28.9539 9.32134 29.8178 8.23438 30.2302 6.9538C29.1451 7.59799 27.9576 8.05161 26.7193 8.295C26.202 7.7432 25.5768 7.30352 24.8826 7.00322C24.1884 6.70291 23.4399 6.54838 22.6835 6.5492C19.6301 6.5492 17.1542 9.0244 17.1542 12.0785C17.1542 12.5114 17.2032 12.9339 17.2977 13.3388C12.7022 13.1082 8.6282 10.9067 5.901 7.56105C5.40927 8.40492 5.15089 9.36441 5.15235 10.3411C5.15162 11.2515 5.37578 12.1479 5.80491 12.9508C6.23403 13.7536 6.85483 14.4381 7.61215 14.9432C6.73424 14.9154 5.87569 14.6783 5.1079 14.2516C5.1072 14.2747 5.1072 14.2975 5.1072 14.3213C5.1072 16.9995 7.01295 19.2343 9.54205 19.7428C8.72769 19.9633 7.87384 19.9956 7.04515 19.8373C7.74865 22.0336 9.79055 23.6327 12.2101 23.6775C10.2515 25.2146 7.83283 26.0483 5.3431 26.0446C4.89685 26.0446 4.4569 26.0187 4.02395 25.9672C6.55212 27.5916 9.4945 28.4538 12.4995 28.4508C22.6698 28.4508 28.2313 20.0259 28.2313 12.72C28.2313 12.4806 28.2257 12.2416 28.2152 12.0039C29.2983 11.222 30.2329 10.2528 30.975 9.142Z" fill="#B3B3B3"/>
</g>
</svg>
