<svg width="80" height="54" viewBox="0 0 80 54" fill="none" xmlns="http://www.w3.org/2000/svg">
<path id="Vector" d="M0.483261 24.5509C8.01521 9.90756 22.9264 0 40 0C57.0736 0 71.9889 9.91448 79.5167 24.5523C79.8345 25.1786 80 25.8705 80 26.5722C80 27.2739 79.8345 27.9658 79.5167 28.592C71.9848 43.2354 57.0736 53.143 40 53.143C22.9264 53.143 8.01105 43.2285 0.483261 28.5906C0.165535 27.9644 0 27.2725 0 26.5708C0 25.8691 0.165535 25.1772 0.483261 24.5509ZM40 46.5001C43.9556 46.5001 47.8224 45.3313 51.1114 43.1415C54.4004 40.9517 56.9639 37.8393 58.4776 34.1978C59.9914 30.5564 60.3874 26.5494 59.6157 22.6836C58.844 18.8178 56.9392 15.2669 54.1422 12.4798C51.3451 9.69276 47.7814 7.79474 43.9018 7.02579C40.0222 6.25684 36.0008 6.6515 32.3463 8.15985C28.6918 9.66819 25.5682 12.2225 23.3706 15.4997C21.1729 18.777 20 22.63 20 26.5715C19.9987 29.1889 20.5151 31.7809 21.5198 34.1993C22.5244 36.6178 23.9976 38.8152 25.855 40.666C27.7124 42.5168 29.9177 43.9847 32.3448 44.9857C34.7719 45.9868 37.3732 46.5014 40 46.5001ZM40 13.2857C41.1901 13.3023 42.3725 13.4787 43.5153 13.8102C42.5733 15.0858 42.1213 16.6555 42.2412 18.2346C42.3611 19.8137 43.0449 21.2978 44.1688 22.4176C45.2926 23.5374 46.782 24.2189 48.3668 24.3383C49.9516 24.4578 51.5269 24.0074 52.807 23.0687C53.5359 25.7447 53.4043 28.5811 52.4307 31.1786C51.4572 33.7761 49.6906 36.004 47.3797 37.5488C45.0688 39.0935 42.33 39.8772 39.5487 39.7897C36.7673 39.7021 34.0836 38.7477 31.8752 37.0607C29.6667 35.3737 28.0448 33.0392 27.2377 30.3856C26.4306 27.732 26.479 24.893 27.3759 22.2682C28.2729 19.6435 29.9734 17.3651 32.238 15.7537C34.5026 14.1424 37.2173 13.2792 40 13.2857Z" fill="#0D4C79"/>
</svg>
