<svg width="80" height="80" viewBox="0 0 80 80" fill="none" xmlns="http://www.w3.org/2000/svg">
<g id="eva:flag-fill">
<g id="Group">
<path id="Vector" d="M64.2333 15.6C63.4724 15.0517 62.5929 14.6905 61.6663 14.5457C60.7396 14.4009 59.7919 14.4766 58.9 14.7667C56.5472 15.4283 54.1103 15.7427 51.6666 15.7C48.0553 15.504 44.5143 14.6216 41.2333 13.1C37.18 11.2254 32.7958 10.1719 28.3333 10C18.7 10 15 13.3333 14.3333 13.8C14.0143 14.1126 13.7614 14.4862 13.5897 14.8985C13.4179 15.3108 13.3307 15.7534 13.3333 16.2V66.6667C13.3333 67.5507 13.6845 68.3986 14.3096 69.0237C14.9347 69.6488 15.7826 70 16.6666 70C17.5507 70 18.3985 69.6488 19.0237 69.0237C19.6488 68.3986 20 67.5507 20 66.6667V52.3333C22.6561 51.3164 25.4915 50.8514 28.3333 50.9667C31.9447 51.1627 35.4856 52.0451 38.7666 53.5667C42.8199 55.4412 47.2042 56.4948 51.6666 56.6667C55.685 56.8184 59.6824 56.0189 63.3333 54.3333C64.3173 53.8711 65.1516 53.1416 65.741 52.2281C66.3303 51.3145 66.6511 50.2537 66.6666 49.1667V20.3667C66.6655 19.4366 66.4444 18.5199 66.0215 17.6916C65.5986 16.8632 64.9859 16.1465 64.2333 15.6Z" fill="#0D4C79"/>
</g>
</g>
</svg>
