<svg width="80" height="80" viewBox="0 0 80 80" fill="none" xmlns="http://www.w3.org/2000/svg">
<g id="bi:person-check-fill" clip-path="url(#clip0_366_33)">
<g id="Group">
<g id="Group_2">
<path id="Vector" fill-rule="evenodd" clip-rule="evenodd" d="M79.27 25.7301C79.5028 25.9623 79.6875 26.2382 79.8135 26.5419C79.9396 26.8456 80.0045 27.1712 80.0045 27.5001C80.0045 27.8289 79.9396 28.1545 79.8135 28.4582C79.6875 28.762 79.5028 29.0378 79.27 29.2701L64.27 44.2701C64.0378 44.5029 63.7619 44.6876 63.4581 44.8136C63.1544 44.9397 62.8288 45.0045 62.5 45.0045C62.1711 45.0045 61.8455 44.9397 61.5418 44.8136C61.2381 44.6876 60.9622 44.5029 60.73 44.2701L53.23 36.7701C52.7605 36.3006 52.4968 35.664 52.4968 35.0001C52.4968 34.3362 52.7605 33.6995 53.23 33.2301C53.6994 32.7606 54.3361 32.4969 55 32.4969C55.6639 32.4969 56.3006 32.7606 56.77 33.2301L62.5 38.9651L75.73 25.7301C75.9622 25.4973 76.2381 25.3125 76.5418 25.1865C76.8455 25.0605 77.1711 24.9956 77.5 24.9956C77.8288 24.9956 78.1544 25.0605 78.4581 25.1865C78.7619 25.3125 79.0378 25.4973 79.27 25.7301Z" fill="#0D4C79"/>
<path id="Vector_2" d="M5 70C5 70 0 70 0 65C0 60 5 45 30 45C55 45 60 60 60 65C60 70 55 70 55 70H5ZM30 40C33.9782 40 37.7936 38.4196 40.6066 35.6066C43.4197 32.7936 45 28.9782 45 25C45 21.0218 43.4197 17.2064 40.6066 14.3934C37.7936 11.5804 33.9782 10 30 10C26.0218 10 22.2064 11.5804 19.3934 14.3934C16.5804 17.2064 15 21.0218 15 25C15 28.9782 16.5804 32.7936 19.3934 35.6066C22.2064 38.4196 26.0218 40 30 40Z" fill="#0D4C79"/>
</g>
</g>
</g>
<defs>
<clipPath id="clip0_366_33">
<rect width="80" height="80" fill="white" transform="matrix(-1 0 0 1 80 0)"/>
</clipPath>
</defs>
</svg>
