<svg width="80" height="80" viewBox="0 0 80 80" fill="none" xmlns="http://www.w3.org/2000/svg">
<g id="material-symbols:diamond-outline-rounded">
<g id="Group">
<path id="Vector" d="M40.0001 66.25C40.9445 66.25 41.8612 66.0422 42.7501 65.6267C43.639 65.2089 44.4167 64.6111 45.0834 63.8333L70.5834 33.3333C71.4167 32.3333 71.9167 31.1667 72.0834 29.8333C72.2501 28.5 72.0278 27.25 71.4167 26.0833L65.1667 13.6667C64.5556 12.5556 63.7356 11.6667 62.7067 11C61.6801 10.3333 60.5278 10 59.2501 10H20.7501C19.4723 10 18.3201 10.3333 17.2934 11C16.2645 11.6667 15.4445 12.5556 14.8334 13.6667L8.5834 26.0833C7.97229 27.25 7.75006 28.5 7.91673 29.8333C8.0834 31.1667 8.5834 32.3333 9.41673 33.3333L34.9167 63.8333C35.5834 64.6111 36.3612 65.2089 37.2501 65.6267C38.139 66.0422 39.0556 66.25 40.0001 66.25ZM47.9167 26.6667H32.0834L37.0834 16.6667H42.9167L47.9167 26.6667ZM43.3334 55.5833V33.3333H61.8334L43.3334 55.5833ZM36.6667 55.5833L18.1667 33.3333H36.6667V55.5833ZM24.6667 26.6667H15.8334L20.8334 16.6667H29.6667L24.6667 26.6667ZM64.1667 26.6667H55.3334L50.3334 16.6667H59.1667L64.1667 26.6667Z" fill="#0D4C79"/>
</g>
</g>
</svg>
