<svg width="41" height="30" viewBox="0 0 41 30" fill="none" xmlns="http://www.w3.org/2000/svg">
<g id="United Kingdom (GB)" clip-path="url(#clip0_193_33)">
<path id="Vector" d="M0.5 0H40.5V30H0.5V0Z" fill="#012169"/>
<path id="Vector_2" d="M5.1875 0L20.4375 11.3125L35.625 0H40.5V3.875L25.5 15.0625L40.5 26.1875V30H35.5L20.5 18.8125L5.5625 30H0.5V26.25L15.4375 15.125L0.5 4V0H5.1875Z" fill="white"/>
<path id="Vector_3" d="M27 17.5625L40.5 27.5V30L23.5625 17.5625H27ZM15.5 18.8125L15.875 21L3.875 30H0.5L15.5 18.8125ZM40.5 0V0.1875L24.9375 11.9375L25.0625 9.1875L37.375 0H40.5ZM0.5 0L15.4375 11H11.6875L0.5 2.625V0Z" fill="#C8102E"/>
<path id="Vector_4" d="M15.5625 0V30H25.5625V0H15.5625ZM0.5 10V20H40.5V10H0.5Z" fill="white"/>
<path id="Vector_5" d="M0.5 12.0625V18.0625H40.5V12.0625H0.5ZM17.5625 0V30H23.5625V0H17.5625Z" fill="#C8102E"/>
</g>
<defs>
<clipPath id="clip0_193_33">
<rect width="40" height="30" fill="white" transform="translate(0.5)"/>
</clipPath>
</defs>
</svg>
